<?xml version="1.0" standalone="no"?>
<!DOCTYPE svg PUBLIC "-//W3C//DTD SVG 20010904//EN"
 "http://www.w3.org/TR/2001/REC-SVG-20010904/DTD/svg10.dtd">
<svg version="1.0" xmlns="http://www.w3.org/2000/svg"
 width="512.000000pt" height="512.000000pt" viewBox="0 0 512.000000 512.000000"
 preserveAspectRatio="xMidYMid meet">

<g transform="translate(0.000000,512.000000) scale(0.100000,-0.100000)"
fill="#000000" stroke="none">
<path d="M293 5068 c3 -29 99 -1068 213 -2308 114 -1240 208 -2256 208 -2257
3 -4 1830 -493 1846 -493 16 0 1843 489 1846 493 0 1 94 1017 208 2257 114
1240 210 2279 213 2308 l6 52 -2273 0 -2273 0 6 -52z m3677 -904 c0 -27 -52
-539 -55 -542 -2 -2 -306 -133 -676 -292 l-674 -289 653 -1 654 0 -6 -47 c-3
-27 -38 -415 -77 -863 -39 -448 -72 -816 -74 -818 -2 -2 -262 -79 -579 -172
l-576 -168 -578 170 c-317 94 -580 173 -583 177 -4 3 -21 175 -38 381 -17 206
-34 401 -38 433 l-6 57 287 0 c220 0 288 -3 291 -12 2 -7 12 -109 22 -227 l18
-214 308 -79 308 -79 321 90 c176 49 322 91 323 93 4 4 45 650 45 699 l0 29
-980 0 c-747 0 -980 3 -980 12 0 6 -9 128 -21 271 -12 142 -17 262 -12 266 4
4 316 135 693 292 l685 284 -717 3 -718 2 -5 23 c-4 19 -65 515 -65 531 0 3
641 6 1425 6 1317 0 1425 -1 1425 -16z"/>
</g>
</svg>
