<?xml version="1.0" standalone="no"?>
<!DOCTYPE svg PUBLIC "-//W3C//DTD SVG 20010904//EN"
 "http://www.w3.org/TR/2001/REC-SVG-20010904/DTD/svg10.dtd">
<svg version="1.0" xmlns="http://www.w3.org/2000/svg"
 width="1024.000000pt" height="1024.000000pt" viewBox="0 0 1024.000000 1024.000000"
 preserveAspectRatio="xMidYMid meet">

<g transform="translate(0.000000,1024.000000) scale(0.100000,-0.100000)"
fill="#000000" stroke="none">
<path d="M0 5120 l0 -5120 5120 0 5120 0 0 5120 0 5120 -5120 0 -5120 0 0
-5120z m8077 455 c268 -35 493 -124 683 -270 153 -118 423 -458 389 -489 -11
-10 -655 -426 -725 -468 -8 -5 -26 16 -55 65 -51 87 -193 231 -266 270 -116
62 -325 86 -450 53 -222 -59 -344 -244 -312 -471 13 -90 46 -162 106 -226 93
-99 218 -169 603 -334 552 -238 813 -390 1024 -599 273 -270 394 -626 365
-1071 -44 -667 -513 -1109 -1289 -1216 -122 -17 -486 -17 -610 0 -628 85
-1100 379 -1386 864 -30 50 -54 94 -54 98 0 4 161 100 358 215 196 114 371
216 388 226 l32 19 58 -88 c75 -111 224 -267 311 -325 192 -128 362 -174 618
-165 206 7 337 47 452 139 183 145 216 414 74 602 -86 115 -250 209 -706 406
-143 62 -317 141 -387 176 -552 276 -826 611 -899 1099 -17 119 -15 353 5 465
82 460 388 805 853 960 101 33 164 47 333 73 69 11 380 6 487 -8z m-2497
-1692 c0 -1025 -4 -1709 -10 -1791 -31 -398 -150 -691 -370 -912 -223 -223
-515 -341 -914 -371 -320 -23 -637 30 -893 152 -266 127 -514 372 -663 657
-18 34 -31 64 -29 66 13 12 769 466 776 466 4 0 21 -24 37 -53 61 -111 141
-219 210 -284 121 -115 249 -160 428 -149 214 13 344 95 407 253 53 134 51 67
51 1906 0 937 3 1707 7 1710 3 4 222 7 485 7 l478 0 0 -1657z"/>
</g>
</svg>
