<?xml version="1.0" standalone="no"?>
<!DOCTYPE svg PUBLIC "-//W3C//DTD SVG 20010904//EN"
 "http://www.w3.org/TR/2001/REC-SVG-20010904/DTD/svg10.dtd">
<svg version="1.0" xmlns="http://www.w3.org/2000/svg"
 width="1200.000000pt" height="1200.000000pt" viewBox="0 0 1200.000000 1200.000000"
 preserveAspectRatio="xMidYMid meet">

<g transform="translate(0.000000,1200.000000) scale(0.100000,-0.100000)"
fill="#000000" stroke="none">
<path d="M5585 11984 c-1320 -102 -2334 -597 -2543 -1244 -39 -119 -42 -177
-42 -817 l0 -623 1500 0 1500 0 0 -150 0 -150 -2272 0 c-1504 0 -2295 -4
-2338 -10 -470 -75 -888 -569 -1146 -1358 -192 -584 -278 -1352 -229 -2022 52
-694 198 -1280 436 -1748 255 -500 588 -801 944 -852 40 -5 332 -10 688 -10
l617 0 0 193 c0 210 14 548 30 752 115 1409 530 1982 1553 2139 330 51 468 57
1562 66 1005 9 1244 16 1540 45 616 63 971 216 1195 518 197 264 315 656 374
1247 36 347 41 554 41 1615 l0 1050 -23 80 c-125 430 -588 799 -1307 1042
-604 203 -1373 291 -2080 237z m-1090 -946 c132 -34 284 -155 342 -273 52
-104 67 -162 67 -265 0 -157 -54 -283 -168 -395 -112 -110 -228 -158 -386
-158 -153 -1 -281 52 -391 162 -109 109 -164 240 -164 391 0 99 15 158 63 255
75 151 253 277 422 298 48 6 166 -2 215 -15z"/>
<path d="M9300 8833 c0 -92 -5 -269 -10 -393 -34 -789 -125 -1267 -314 -1655
-247 -504 -656 -765 -1366 -869 -331 -48 -762 -66 -1640 -66 -925 0 -1271 -13
-1608 -61 -700 -98 -1033 -394 -1208 -1076 -127 -497 -157 -987 -152 -2453 4
-895 4 -895 26 -968 28 -92 91 -218 151 -302 103 -146 300 -317 510 -444 920
-559 2525 -709 3781 -355 843 238 1416 673 1514 1151 14 66 16 172 16 718 l0
640 -1500 0 -1500 0 0 150 0 150 2290 0 c2051 0 2299 2 2368 16 596 122 1108
972 1281 2124 46 308 55 457 55 860 0 403 -9 552 -55 860 -154 1028 -579 1824
-1102 2065 -156 72 -119 69 -864 72 l-673 4 0 -168z m-1485 -6804 c340 -104
493 -508 310 -814 -152 -254 -475 -342 -738 -203 -276 147 -373 503 -212 773
46 77 95 128 169 176 143 94 308 118 471 68z"/>
</g>
</svg>
