<?xml version="1.0" standalone="no"?>
<!DOCTYPE svg PUBLIC "-//W3C//DTD SVG 20010904//EN"
 "http://www.w3.org/TR/2001/REC-SVG-20010904/DTD/svg10.dtd">
<svg version="1.0" xmlns="http://www.w3.org/2000/svg"
 width="1200.000000pt" height="1200.000000pt" viewBox="0 0 1200.000000 1200.000000"
 preserveAspectRatio="xMidYMid meet">

<g transform="translate(0.000000,1200.000000) scale(0.100000,-0.100000)"
fill="#000000" stroke="none">
<path d="M8260 11243 c-401 -41 -862 -231 -1348 -556 -246 -163 -601 -449
-810 -651 l-93 -89 -32 29 c-17 17 -66 62 -108 101 -105 97 -339 290 -486 401
-525 395 -1050 652 -1503 734 -162 29 -407 30 -540 1 -187 -40 -340 -119 -474
-244 -234 -220 -378 -550 -452 -1039 -25 -164 -30 -658 -10 -890 26 -304 91
-703 157 -962 10 -42 19 -83 19 -91 0 -10 -20 -21 -57 -32 -121 -34 -435 -140
-597 -202 -665 -255 -1197 -576 -1531 -925 -493 -514 -522 -1019 -91 -1548
392 -480 1189 -943 2135 -1240 l133 -42 -5 -32 c-4 -17 -22 -101 -41 -187
-148 -652 -185 -1289 -105 -1789 105 -662 411 -1081 873 -1200 460 -117 1090
51 1750 468 294 186 563 395 864 670 l112 104 143 -129 c324 -295 582 -494
872 -675 529 -331 1006 -491 1410 -475 295 12 510 101 701 291 167 166 288
386 369 666 74 258 105 482 112 821 10 429 -35 849 -143 1333 -19 87 -34 159
-32 160 2 1 101 34 220 74 1511 499 2423 1294 2319 2023 -71 491 -554 975
-1388 1393 -279 139 -623 278 -933 375 -240 76 -245 78 -244 87 1 5 20 95 42
199 71 333 112 620 133 929 14 218 7 591 -16 766 -94 730 -383 1188 -840 1329
-133 42 -333 60 -485 44z m264 -508 c104 -18 178 -56 254 -129 296 -283 401
-995 276 -1876 -27 -192 -55 -349 -85 -480 -31 -134 -39 -161 -48 -156 -16 10
-511 106 -722 141 -215 34 -514 74 -729 96 l-116 12 -49 70 c-229 325 -563
744 -848 1061 l-98 109 38 40 c69 71 365 328 499 432 421 326 858 563 1201
650 176 44 299 53 427 30z m-4699 -27 c392 -76 900 -348 1404 -752 131 -105
352 -298 399 -348 l22 -25 -67 -74 c-290 -318 -674 -794 -892 -1106 -24 -35
-51 -63 -60 -63 -9 0 -117 -11 -240 -25 -379 -42 -751 -101 -1117 -175 -108
-23 -199 -39 -201 -36 -10 10 -95 415 -118 561 -51 331 -59 432 -60 775 0 352
10 456 62 670 80 332 227 533 436 600 101 32 262 32 432 -2z m2272 -1581 c187
-211 578 -691 591 -725 1 -4 -308 -7 -687 -7 -457 0 -687 3 -683 10 15 25 221
284 327 410 171 205 349 404 360 404 6 0 47 -42 92 -92z m678 -1246 c88 -6
192 -13 232 -16 l72 -7 109 -166 c335 -514 657 -1069 888 -1533 l77 -156 -145
-284 c-230 -451 -481 -889 -731 -1278 -55 -86 -121 -189 -146 -228 -54 -85
-30 -78 -311 -93 -464 -26 -1304 -23 -1787 7 l-102 6 -115 172 c-305 458 -582
933 -836 1437 l-130 257 81 163 c269 537 544 1016 871 1514 l118 181 53 6 c28
3 156 11 282 17 127 6 259 12 295 14 124 7 1066 -3 1225 -13z m-2523 -123
c-10 -18 -66 -109 -124 -203 -127 -205 -356 -605 -463 -808 -42 -82 -81 -145
-85 -140 -38 41 -380 988 -363 1004 22 21 903 174 1021 178 l34 1 -20 -32z
m3630 17 c243 -34 607 -99 865 -155 l51 -11 -25 -82 c-69 -224 -335 -927 -352
-927 -3 0 -44 71 -91 158 -123 229 -335 598 -457 795 -162 263 -149 237 -124
237 11 0 71 -7 133 -15z m-5092 -505 c128 -380 272 -754 432 -1113 l70 -158
-90 -207 c-161 -368 -311 -759 -432 -1127 -29 -88 -56 -164 -61 -169 -9 -10
-405 116 -626 200 -242 91 -527 223 -718 332 -200 114 -457 297 -560 398 -130
128 -235 311 -280 486 -21 84 -23 105 -14 160 46 295 421 644 1024 954 308
159 592 275 952 390 227 72 227 72 230 70 1 -1 34 -98 73 -216z m6775 125
c290 -95 515 -185 764 -306 411 -200 664 -365 880 -574 125 -121 182 -195 232
-300 112 -233 44 -442 -230 -716 -288 -288 -751 -561 -1350 -796 -198 -78
-518 -185 -539 -181 -9 2 -20 17 -25 33 -117 363 -359 974 -530 1337 l-55 117
83 183 c148 328 322 777 441 1141 l49 148 30 -7 c16 -3 129 -39 250 -79z
m-1074 -2122 c105 -250 329 -849 329 -882 0 -9 -284 -69 -530 -111 -166 -29
-523 -80 -556 -80 -11 0 -8 10 14 43 99 145 435 722 587 1010 49 92 90 167 91
167 1 0 30 -66 65 -147z m-4746 -168 c122 -225 290 -513 437 -749 54 -87 97
-161 94 -164 -8 -7 -310 32 -562 73 -193 32 -504 91 -510 98 -4 4 138 426 189
562 48 129 157 402 178 448 l13 28 26 -48 c15 -26 75 -138 135 -248z m5224
-1252 c6 -21 28 -121 50 -223 116 -540 136 -987 70 -1525 -32 -256 -79 -397
-186 -558 -59 -87 -176 -208 -229 -235 -385 -196 -1157 104 -1935 754 -140
117 -359 316 -359 327 0 4 60 76 133 160 260 296 541 655 757 965 51 72 99
132 106 132 8 0 120 11 249 25 386 41 765 101 1116 174 101 22 192 39 201 40
12 1 20 -11 27 -36z m-5354 -77 c246 -42 605 -88 860 -111 99 -9 183 -20 186
-23 3 -4 50 -68 104 -142 240 -331 581 -750 842 -1034 l63 -69 -82 -77 c-491
-457 -867 -706 -1429 -944 -85 -36 -193 -75 -239 -86 -236 -58 -551 -21 -679
81 -374 295 -462 1222 -221 2311 22 99 42 183 45 188 2 4 80 -8 172 -26 92
-18 263 -49 378 -68z m3086 -181 c-4 -5 -43 -57 -86 -115 -153 -204 -354 -450
-523 -638 l-74 -82 -57 62 c-206 226 -442 510 -642 773 -5 7 227 10 691 10
464 0 696 -3 691 -10z"/>
<path d="M5829 7061 c-236 -44 -423 -142 -590 -310 -139 -141 -228 -294 -281
-489 -18 -65 -22 -106 -22 -257 -1 -159 2 -190 22 -265 55 -200 140 -349 281
-491 145 -146 291 -232 488 -287 90 -24 113 -27 273 -27 160 0 183 3 273 27
194 55 342 141 483 282 141 141 227 289 282 483 24 90 27 113 27 273 0 160 -3
183 -27 273 -55 197 -141 343 -287 488 -141 140 -297 230 -489 281 -85 22
-349 34 -433 19z"/>
</g>
</svg>
